<svg width="512" height="512" viewBox="0 0 512 512" fill="none" xmlns="http://www.w3.org/2000/svg">
  <rect width="512" height="512" fill="#0f172a"/>
  <g transform="translate(101.5 114.5)">
    <path d="M137.788 38.4355C197.189 38.4357 237.141 80.1112 237.141 121.998C237.14 163.885 197.189 205.56 137.788 205.561C78.3869 205.561 38.4357 163.885 38.4355 121.998C38.4355 80.1111 78.3868 38.4355 137.788 38.4355Z" fill="#00AEEF" stroke="#00AEEF" stroke-width="76.8706"/>
    <path d="M137.788 55.1254C180.494 55.1256 213.304 86.2399 213.304 122.497C213.304 158.753 180.494 189.867 137.788 189.868C95.082 189.868 62.2725 158.753 62.2725 122.497C62.2725 86.2398 95.082 55.1254 137.788 55.1254Z" stroke="white" stroke-width="20.8294"/>
    <circle cx="101.388" cy="122.496" r="13.6292" fill="white"/>
    <circle cx="172.526" cy="122.496" r="13.6292" fill="white"/>
    <path d="M169.866 36.7323L186.82 31.5798V64.3231H169.866V36.7323Z" fill="white"/>
    <path d="M269.607 248.233L189.732 225.56L257.963 166.023L269.607 248.233Z" fill="#00AEEF"/>
  </g>
</svg>