<svg width="357" height="473" viewBox="0 0 357 473" fill="none" xmlns="http://www.w3.org/2000/svg">
<path d="M215.211 220.25L178.613 271.449L142.015 220.25C71.1573 201.737 27.5452 123.96 69.1056 57.4919C116.917 -18.9487 240.31 -18.9964 288.121 57.4919C329.681 124.008 286.069 201.737 215.211 220.25ZM222.368 32.5843L207.767 37.165L207.099 49.5234C156.807 28.9102 90.6253 69.898 104.94 127.682C116.01 172.391 169.881 191.287 210.344 174.395C262.593 152.589 269.893 87.2188 221.891 56.4421L222.368 32.5366V32.5843Z" fill="white"/>
<path d="M94.7291 314.966H142.731V299.172H113.386V224.354C113.386 223.352 115.819 221.3 117.06 221.3C118.301 221.3 120.734 223.352 120.734 224.354V292.396H142.779V254.272C142.779 251.933 148.886 249.691 149.554 255.369V420.847C149.888 422.613 152.131 422.708 153.467 423.71C167.782 434.637 151.893 454.773 138.294 445.087C128.941 438.407 131.995 424.569 142.779 421.706V351.659H65.4316C58.99 370.03 32.2215 356.669 42.1463 340.542C48.4448 330.283 63.857 333.337 65.9565 344.884H142.779V322.314H40.858C39.856 322.314 37.8042 319.881 37.8042 318.64C37.8042 317.399 39.856 314.966 40.858 314.966H88.0012V223.209C88.0012 220.059 94.7768 220.059 94.7768 223.209V314.966H94.7291ZM60.994 347.46C60.994 343.166 57.5108 339.683 53.2164 339.683C48.922 339.683 45.4387 343.166 45.4387 347.46C45.4387 351.755 48.922 355.238 53.2164 355.238C57.5108 355.238 60.994 351.755 60.994 347.46ZM153.61 434.398C153.61 430.104 150.127 426.621 145.833 426.621C141.538 426.621 138.055 430.104 138.055 434.398C138.055 438.693 141.538 442.176 145.833 442.176C150.127 442.176 153.61 438.693 153.61 434.398Z" fill="white"/>
<path d="M244.413 298.599H215.068V314.393H263.07V222.636C263.07 219.487 269.846 219.487 269.846 222.636V314.393H316.416C317.418 314.393 319.47 316.827 319.47 318.067C319.47 319.308 317.418 321.742 316.416 321.742H215.068V344.311H291.891C294.038 332.764 309.402 329.71 315.701 339.969C325.626 356.097 298.905 369.457 292.415 351.087H215.068V421.133C225.852 423.996 228.906 437.882 219.553 444.514C205.954 454.2 190.065 434.064 204.38 423.138C205.716 422.135 207.959 422.04 208.293 420.275V254.796C208.961 249.118 215.068 251.313 215.068 253.699V291.824H237.113V223.209C237.113 222.207 239.546 220.155 240.787 220.155C242.028 220.155 244.461 222.207 244.461 223.209V298.599H244.413ZM312.313 346.888C312.313 342.593 308.83 339.11 304.535 339.11C300.241 339.11 296.758 342.593 296.758 346.888C296.758 351.182 300.241 354.665 304.535 354.665C308.83 354.665 312.313 351.182 312.313 346.888ZM219.697 433.826C219.697 429.531 216.213 426.048 211.919 426.048C207.625 426.048 204.141 429.531 204.141 433.826C204.141 438.12 207.625 441.604 211.919 441.604C216.213 441.604 219.697 438.12 219.697 433.826Z" fill="white"/>
<path d="M172.697 447.139C176.275 445.993 179.186 445.946 182.86 446.566C183.003 442.128 182.669 437.691 182.86 433.253C184.339 388.687 184.959 340.589 184.053 296.023C184.005 292.587 182.097 290.488 187.154 289.009C189.111 289.438 190.59 290.583 190.876 292.635C191.783 299.745 190.351 307.618 190.256 314.68C189.826 349.13 190.59 383.629 190.304 418.08C190.208 428.72 188.634 440.172 189.683 450.813C190.208 456.204 193.453 457.588 190.972 464.459C186.82 475.911 169.547 475.673 165.73 464.078C164.108 459.163 165.825 457.779 166.016 453.628C167.925 411.686 166.112 369.171 166.541 327.086C166.637 316.97 167.352 306.807 167.162 296.595C167.162 294.257 165.825 292.635 167.352 290.631C169.118 288.388 172.506 288.77 173.603 291.251C174.701 293.732 173.985 309.001 173.937 312.437C173.412 349.608 173.317 387.064 172.744 424.187C172.649 431.822 172.887 439.456 172.744 447.091L172.697 447.139ZM185.771 459.592C185.771 455.489 182.431 452.149 178.327 452.149C174.223 452.149 170.883 455.489 170.883 459.592C170.883 463.696 174.223 467.036 178.327 467.036C182.431 467.036 185.771 463.696 185.771 459.592Z" fill="white"/>
<path d="M313.315 264.149H296.948V291.824H330.826C333.689 280.706 348.433 277.986 354.636 288.054C364.561 304.182 337.841 317.543 331.351 299.172H289.552V223.209C289.552 222.207 291.986 220.155 293.226 220.155C294.467 220.155 296.9 222.207 296.9 223.209V257.373H309.593L329.395 237.571L329.538 236.33C322.094 224.497 336.075 210.755 347.909 218.485C357.452 224.736 354.827 239.193 343.996 242.056C340.083 243.106 338.509 242.056 334.739 241.77C327.963 248.737 320.854 255.417 314.078 262.383C313.601 262.86 313.315 263.385 313.267 264.101L313.315 264.149ZM348.481 229.412C348.481 225.117 344.998 221.634 340.703 221.634C336.409 221.634 332.926 225.117 332.926 229.412C332.926 233.706 336.409 237.189 340.703 237.189C344.998 237.189 348.481 233.706 348.481 229.412ZM351.296 294.925C351.296 290.631 347.813 287.148 343.519 287.148C339.224 287.148 335.741 290.631 335.741 294.925C335.741 299.22 339.224 302.703 343.519 302.703C347.813 302.703 351.296 299.22 351.296 294.925Z" fill="white"/>
<path d="M60.8506 257.946V224.354C60.8506 223.352 63.2841 221.3 64.5247 221.3C65.7653 221.3 68.1988 223.352 68.1988 224.354V299.745H26.3998C19.9582 318.115 -6.81033 304.755 3.11454 288.627C9.31758 278.559 24.1095 281.279 26.9247 292.396H60.8029V264.721H44.4364C44.3409 264.721 44.2455 263.672 43.6252 263.004C36.8496 256.037 29.7399 249.357 22.9643 242.39C19.1947 242.629 17.6201 243.726 13.7074 242.677C2.92367 239.766 0.299311 225.308 9.79474 219.105C19.2425 212.95 31.4577 220.727 30.1693 231.559C29.9308 233.468 27.7836 237.046 28.3084 238.191L48.1105 257.993H60.8029L60.8506 257.946ZM24.8729 229.984C24.8729 225.69 21.3897 222.207 17.0952 222.207C12.8008 222.207 9.31758 225.69 9.31758 229.984C9.31758 234.279 12.8008 237.762 17.0952 237.762C21.3897 237.762 24.8729 234.279 24.8729 229.984ZM22.0577 295.498C22.0577 291.204 18.5744 287.72 14.28 287.72C9.9856 287.72 6.50236 291.204 6.50236 295.498C6.50236 299.792 9.9856 303.276 14.28 303.276C18.5744 303.276 22.0577 299.792 22.0577 295.498Z" fill="white"/>
<path d="M241.598 378.81V397.991C262.593 404.385 246.465 433.73 230.29 420.895C221.462 413.881 225.232 401.665 234.823 397.705V371.986H267.556C273.95 350.991 303.295 367.119 290.459 383.295C283.445 392.122 271.23 388.353 267.269 378.762H241.551L241.598 378.81ZM288.026 375.135C288.026 370.841 284.542 367.358 280.248 367.358C275.954 367.358 272.47 370.841 272.47 375.135C272.47 379.43 275.954 382.913 280.248 382.913C284.542 382.913 288.026 379.43 288.026 375.135ZM246.227 410.684C246.227 406.389 242.743 402.906 238.449 402.906C234.155 402.906 230.671 406.389 230.671 410.684C230.671 414.978 234.155 418.461 238.449 418.461C242.743 418.461 246.227 414.978 246.227 410.684Z" fill="white"/>
<path d="M90.2439 372.559H122.977V398.278C132.568 402.19 136.337 414.406 127.51 421.467C111.334 434.351 95.2063 404.958 116.201 398.564V379.382H90.4824C86.5697 388.973 74.3545 392.743 67.2926 383.915C54.4093 367.74 83.8022 351.612 90.1961 372.607L90.2439 372.559ZM85.2814 375.66C85.2814 371.366 81.7982 367.883 77.5037 367.883C73.2093 367.883 69.7261 371.366 69.7261 375.66C69.7261 379.955 73.2093 383.438 77.5037 383.438C81.7982 383.438 85.2814 379.955 85.2814 375.66ZM127.08 411.256C127.08 406.962 123.597 403.479 119.303 403.479C115.008 403.479 111.525 406.962 111.525 411.256C111.525 415.551 115.008 419.034 119.303 419.034C123.597 419.034 127.08 415.551 127.08 411.256Z" fill="white"/>
<path d="M53.264 355.238C57.5595 355.238 61.0417 351.756 61.0417 347.46C61.0417 343.165 57.5595 339.683 53.264 339.683C48.9685 339.683 45.4863 343.165 45.4863 347.46C45.4863 351.756 48.9685 355.238 53.264 355.238Z" fill="white"/>
<path d="M145.88 442.176C150.175 442.176 153.657 438.694 153.657 434.398C153.657 430.103 150.175 426.621 145.88 426.621C141.584 426.621 138.102 430.103 138.102 434.398C138.102 438.694 141.584 442.176 145.88 442.176Z" fill="white"/>
<path d="M304.535 354.665C308.83 354.665 312.313 351.183 312.313 346.888C312.313 342.592 308.83 339.11 304.535 339.11C300.239 339.11 296.757 342.592 296.757 346.888C296.757 351.183 300.239 354.665 304.535 354.665Z" fill="white"/>
<path d="M211.919 441.603C216.215 441.603 219.697 438.121 219.697 433.826C219.697 429.53 216.215 426.048 211.919 426.048C207.624 426.048 204.142 429.53 204.142 433.826C204.142 438.121 207.624 441.603 211.919 441.603Z" fill="white"/>
<path d="M178.326 467.036C182.437 467.036 185.77 463.703 185.77 459.592C185.77 455.481 182.437 452.149 178.326 452.149C174.215 452.149 170.883 455.481 170.883 459.592C170.883 463.703 174.215 467.036 178.326 467.036Z" fill="white"/>
<path d="M340.703 237.189C344.999 237.189 348.481 233.707 348.481 229.412C348.481 225.116 344.999 221.634 340.703 221.634C336.408 221.634 332.926 225.116 332.926 229.412C332.926 233.707 336.408 237.189 340.703 237.189Z" fill="white"/>
<path d="M343.519 302.703C347.814 302.703 351.297 299.221 351.297 294.925C351.297 290.63 347.814 287.148 343.519 287.148C339.223 287.148 335.741 290.63 335.741 294.925C335.741 299.221 339.223 302.703 343.519 302.703Z" fill="white"/>
<path d="M17.0955 237.762C21.391 237.762 24.8732 234.28 24.8732 229.984C24.8732 225.689 21.391 222.207 17.0955 222.207C12.8 222.207 9.31787 225.689 9.31787 229.984C9.31787 234.28 12.8 237.762 17.0955 237.762Z" fill="white"/>
<path d="M14.2801 303.276C18.5756 303.276 22.0578 299.793 22.0578 295.498C22.0578 291.202 18.5756 287.72 14.2801 287.72C9.98461 287.72 6.50244 291.202 6.50244 295.498C6.50244 299.793 9.98461 303.276 14.2801 303.276Z" fill="white"/>
<path d="M280.248 382.913C284.543 382.913 288.026 379.431 288.026 375.135C288.026 370.84 284.543 367.358 280.248 367.358C275.952 367.358 272.47 370.84 272.47 375.135C272.47 379.431 275.952 382.913 280.248 382.913Z" fill="white"/>
<path d="M238.497 418.461C242.792 418.461 246.275 414.979 246.275 410.684C246.275 406.388 242.792 402.906 238.497 402.906C234.201 402.906 230.719 406.388 230.719 410.684C230.719 414.979 234.201 418.461 238.497 418.461Z" fill="white"/>
<path d="M77.5511 383.438C81.8466 383.438 85.3288 379.956 85.3288 375.66C85.3288 371.365 81.8466 367.883 77.5511 367.883C73.2556 367.883 69.7734 371.365 69.7734 375.66C69.7734 379.956 73.2556 383.438 77.5511 383.438Z" fill="white"/>
<path d="M119.303 419.034C123.598 419.034 127.08 415.552 127.08 411.256C127.08 406.961 123.598 403.479 119.303 403.479C115.007 403.479 111.525 406.961 111.525 411.256C111.525 415.552 115.007 419.034 119.303 419.034Z" fill="white"/>
<path d="M176.514 56.4899C216.166 55.4401 254.577 90.2249 238.306 131.26C220.46 176.256 150.843 181.028 124.456 141.567C97.5444 101.295 132.949 57.635 176.514 56.4899ZM158.143 112.508C158.143 106.019 152.895 100.77 146.405 100.77C139.916 100.77 134.667 106.019 134.667 112.508C134.667 118.997 139.916 124.246 146.405 124.246C152.895 124.246 158.143 118.997 158.143 112.508ZM220.842 112.508C220.842 106.019 215.593 100.77 209.104 100.77C202.614 100.77 197.366 106.019 197.366 112.508C197.366 118.997 202.614 124.246 209.104 124.246C215.593 124.246 220.842 118.997 220.842 112.508Z" fill="white"/>
</svg>
